<svg version="1.1" xmlns="http://www.w3.org/2000/svg" xmlns:xlink="http://www.w3.org/1999/xlink" x="0px" y="0px" viewBox="0 0 222 173.1" style="enable-background:new 0 0 222 173.1;" xml:space="preserve">
    <style>
        .logo-footer-st0{fill:#F5BDB2;}
        .logo-footer-st1{fill:#D89FA0;}
        .logo-footer-st2{fill:#757575;}
        .logo-footer-st3{fill:#949394;}
    </style>
    <g>
        <g>
            <path class="logo-footer-st0" d="M85.9,65h10.7l0-8.9c-4.9-1-8.6-5.3-8.6-10.4c0-5.8,4.8-10.6,10.6-10.6c5.8,0,10.6,4.8,10.6,10.6
                c0,5.1-3.7,9.4-8.6,10.4v9c0,2.2-1.8,3.9-4.1,3.9h-7.2v8.3h27.3v0c0.1,0,0.3,0,0.4,0h13.7V51.2c0-3.5,2.9-6.4,6.4-6.4h7.7
                c-7.3-11.4-20.2-19-34.8-19H68.9v22.5C69.1,57.6,76.6,65,85.9,65z M109.8,58.5c0-1.1,0.9-2.1,2.1-2.1h12.9c1.1,0,2.1,0.9,2.1,2.1
                v12.9c0,1.1-0.9,2.1-2.1,2.1h-12.9c-1.1,0-2.1-0.9-2.1-2.1V58.5z"/>
            <rect x="113.9" y="60.6" class="logo-footer-st0" width="8.7" height="8.7"/>
            <path class="logo-footer-st0" d="M105.2,45.7c0-3.6-2.9-6.5-6.5-6.5c-3.6,0-6.5,2.9-6.5,6.5s2.9,6.5,6.5,6.5C102.3,52.2,105.2,49.3,105.2,45.7
                z"/>
            <polygon class="logo-footer-st1" points="130.9,89.6 130.9,83.7 130.9,81.5 119.3,81.5 119.3,89.6 		"/>
            <path class="logo-footer-st1" d="M147.3,48.9h-10c-1.3,0-2.3,1-2.3,2.3v28.3v4.2v8c0,1.1-0.9,2.1-2.1,2.1h-15.7c-1.1,0-2.1-0.9-2.1-2.1V81.5
                H87.4c-1.1,0-2.1-0.9-2.1-2.1V69.1c-6.7-0.2-12.7-3.5-16.4-8.6v6.6c0,22.8,18.5,41.3,41.3,41.3s41.3-18.5,41.3-41.3
                C151.5,60.6,150,54.4,147.3,48.9z"/>
            <path class="logo-footer-st0" d="M68.9,15.1c0-5.9-4.8-10.7-10.7-10.7S47.5,9.2,47.5,15.1s4.8,10.7,10.7,10.7h10.7V15.1z"/>
        </g>
        <g>
            <g>
                <path class="logo-footer-st2" d="M28.8,143.9H4v-2.5h11v-2.4c-0.8-0.1-1.5-0.3-2.2-0.6c-0.7-0.3-1.2-0.7-1.7-1.2c-0.5-0.5-0.9-1-1.2-1.7
                    c-0.3-0.6-0.4-1.3-0.4-2.1c0-0.8,0.2-1.6,0.5-2.3c0.3-0.7,0.8-1.3,1.4-1.8c0.6-0.5,1.3-0.9,2.1-1.2c0.8-0.3,1.7-0.4,2.6-0.4
                    c0.9,0,1.8,0.1,2.6,0.4c0.8,0.3,1.5,0.7,2.1,1.2c0.6,0.5,1.1,1.1,1.4,1.8c0.3,0.7,0.5,1.5,0.5,2.3c0,1.4-0.5,2.6-1.5,3.6
                    c-1,1-2.2,1.6-3.8,1.9v2.4h11.2V143.9z M23.9,154.3H9.6V146h2.6v5.9h11.7V154.3z M20.1,133.5c0-1-0.4-1.8-1.2-2.5
                    c-0.8-0.7-1.7-1-2.8-1c-1.1,0-2,0.3-2.8,1c-0.8,0.6-1.1,1.5-1.1,2.5c0,1,0.4,1.8,1.1,2.4c0.8,0.6,1.7,0.9,2.8,0.9
                    c1.1,0,2.1-0.3,2.8-0.9C19.7,135.4,20.1,134.6,20.1,133.5z"/>
                <path class="logo-footer-st2" d="M43,140.6H31.5v-11.4H43V140.6z M40.4,138.1v-6.5h-6.2v6.5H40.4z M50.7,154.4H37.1v-9.7h13.6V154.4z M48,152
                    v-4.8h-8.2v4.8H48z M55.7,136h-4.7v7.5h-2.6v-16.2h2.6v6.3h4.7V136z"/>
                <path class="logo-footer-st2" d="M70.1,138.1c0,0.9-0.2,1.8-0.5,2.6c-0.3,0.8-0.8,1.5-1.4,2.2c-0.6,0.6-1.3,1.1-2.1,1.5s-1.7,0.5-2.7,0.5
                    c-1,0-1.9-0.2-2.7-0.5s-1.5-0.8-2.1-1.5c-0.6-0.6-1-1.3-1.4-2.2c-0.3-0.8-0.5-1.7-0.5-2.6c0-0.9,0.2-1.8,0.5-2.6
                    c0.3-0.8,0.8-1.6,1.4-2.2c0.6-0.6,1.3-1.1,2.1-1.4c0.8-0.4,1.7-0.5,2.6-0.5c1,0,1.8,0.2,2.7,0.5c0.8,0.4,1.5,0.9,2.1,1.5
                    c0.6,0.6,1.1,1.3,1.4,2.2C69.9,136.3,70.1,137.1,70.1,138.1z M67.3,138.1c0-0.5-0.1-1.1-0.3-1.6c-0.2-0.5-0.4-1-0.8-1.4
                    c-0.3-0.4-0.7-0.8-1.2-1c-0.5-0.3-1.1-0.4-1.7-0.4c-0.6,0-1.2,0.1-1.6,0.4c-0.5,0.3-0.9,0.6-1.2,1c-0.4,0.4-0.6,0.9-0.8,1.4
                    c-0.2,0.5-0.3,1.1-0.3,1.6c0,0.6,0.1,1.1,0.3,1.6c0.2,0.5,0.5,1,0.8,1.4c0.3,0.4,0.7,0.7,1.2,1c0.5,0.2,1,0.4,1.6,0.4
                    c0.6,0,1.2-0.1,1.7-0.4c0.5-0.2,0.9-0.6,1.2-1c0.3-0.4,0.6-0.8,0.8-1.4S67.3,138.6,67.3,138.1z M78.7,153.6h-2.6v-10.7h-5.3v-2.4
                    h5.3v-4.2h-5.3v-2.4h5.3v-6.6h2.6V153.6z"/>
                <path class="logo-footer-st2" d="M95.1,139.9l-1.8,1.8l-5.5-5.4c-0.4,0.8-0.9,1.5-1.4,2.1c-0.5,0.6-1,1.1-1.6,1.6c-0.5,0.5-1,0.9-1.6,1.2
                    c-0.5,0.3-0.9,0.6-1.3,0.7l-1.8-2c0.7-0.3,1.4-0.7,2.2-1.3c0.7-0.5,1.4-1.2,2-2c0.6-0.8,1.1-1.7,1.5-2.8c0.4-1,0.6-2.2,0.6-3.5
                    v-1.9h2.7v1.9c0,0.6,0,1.2-0.1,1.7c-0.1,0.6-0.2,1.1-0.3,1.6L95.1,139.9z M102.2,149.2c0,0.8-0.2,1.6-0.5,2.3
                    c-0.3,0.7-0.8,1.3-1.4,1.8c-0.6,0.5-1.3,0.9-2,1.2c-0.8,0.3-1.6,0.4-2.5,0.4c-0.9,0-1.8-0.1-2.6-0.4c-0.8-0.3-1.5-0.7-2.1-1.2
                    c-0.6-0.5-1-1.1-1.4-1.8c-0.3-0.7-0.5-1.5-0.5-2.3c0-0.8,0.2-1.5,0.5-2.2c0.4-0.7,0.8-1.3,1.4-1.8c0.6-0.5,1.3-0.9,2.1-1.2
                    c0.8-0.3,1.6-0.5,2.5-0.5c0.9,0,1.7,0.2,2.5,0.5c0.8,0.3,1.5,0.7,2,1.2c0.6,0.5,1.1,1.1,1.4,1.8
                    C102,147.7,102.2,148.4,102.2,149.2z M99.4,149.2c0-1-0.4-1.8-1.2-2.4c-0.8-0.6-1.6-0.9-2.6-0.9c-1.1,0-2,0.3-2.7,1
                    c-0.7,0.7-1.1,1.4-1.1,2.4c0,0.9,0.4,1.7,1.1,2.4c0.7,0.7,1.6,1,2.7,1c1,0,1.9-0.3,2.6-0.9C99.1,151,99.4,150.2,99.4,149.2z
                    M102.7,143.5h-2.6v-8.3h-6.2v-2.5h6.2v-5.5h2.6V143.5z"/>
                <path class="logo-footer-st2" d="M121.3,135.3h-6.5c-0.9,0-1.6,0.1-2.2,0.3c-0.6,0.2-1,0.5-1.4,0.9c-0.5,0.6-0.8,1.4-0.7,2.2
                    c0,0.9,0.4,1.6,1.1,2.1c0.7,0.5,1.5,0.7,2.4,0.7c0.9-0.1,1.6-0.4,2.2-0.9c0.2-0.2,0.4-0.4,0.5-0.7c0.1-0.3,0.2-0.6,0.2-0.9
                    c0-0.3-0.1-0.6-0.2-0.9c-0.1-0.3-0.4-0.5-0.7-0.7l1.9-1.6c0.4,0.3,0.8,0.6,1,1.1c0.3,0.5,0.5,1,0.5,1.6c0.1,0.6,0.1,1.2-0.1,1.8
                    c-0.1,0.6-0.4,1.2-0.9,1.8c-0.4,0.5-0.9,1-1.6,1.3c-0.7,0.3-1.4,0.5-2.2,0.6c-0.8,0.1-1.6,0.1-2.4-0.1c-0.8-0.1-1.5-0.4-2.1-0.9
                    c-0.7-0.4-1.2-1-1.5-1.6c-0.3-0.6-0.5-1.3-0.6-1.9c-0.1-0.7,0-1.3,0.1-1.9c0.1-0.6,0.4-1.1,0.7-1.5c0-0.1,0.2-0.2,0.4-0.3
                    c0.2-0.2,0.4-0.3,0.6-0.3h-3.7v-2.4h15.4V135.3z M118.1,131.3c-0.6,0.1-1.5,0.1-2.5,0.1c-1,0-2.1,0-3.3-0.1
                    c-1-0.1-1.7-0.3-2.3-0.5c-0.6-0.2-1-0.4-1.3-0.6l0.8-2c0.3,0.2,0.7,0.3,1.2,0.4c0.5,0.1,1.1,0.2,1.8,0.3c1,0.1,2,0.1,3.1,0.1
                    c1,0,1.9-0.1,2.5-0.2V131.3z M127.4,154.3h-14.2v-8.4h2.7v5.9h11.6V154.3z M131.7,137.7H127v9.2h-2.6v-19.6h2.6v8h4.6V137.7z"/>
                <path class="logo-footer-st2" d="M151.5,146.2c-0.8,0.1-1.6,0.3-2.4,0.4c-0.8,0.1-1.7,0.2-2.6,0.3c-0.9,0.1-1.9,0.1-3,0.2
                    c-1.1,0-2.2,0.1-3.5,0.1h-6.9v-2.5h7.1c2.6,0,4.8-0.1,6.5-0.2c1.7-0.2,3.3-0.4,4.8-0.7V146.2z M147.7,135.7
                    c0,0.9-0.2,1.7-0.5,2.4c-0.4,0.7-0.8,1.4-1.4,1.9c-0.6,0.5-1.3,1-2.1,1.3c-0.8,0.3-1.6,0.4-2.5,0.4c-0.9,0-1.7-0.1-2.5-0.4
                    c-0.8-0.3-1.5-0.7-2.1-1.2c-0.6-0.5-1.1-1.2-1.4-1.9c-0.3-0.7-0.5-1.6-0.5-2.5c0-0.8,0.2-1.6,0.5-2.4c0.3-0.7,0.8-1.4,1.4-1.9
                    c0.6-0.5,1.3-0.9,2.1-1.3c0.8-0.3,1.6-0.5,2.6-0.5c0.9,0,1.7,0.1,2.5,0.4c0.8,0.3,1.5,0.7,2.1,1.2c0.6,0.5,1,1.2,1.4,1.9
                    C147.5,134,147.7,134.8,147.7,135.7z M145,135.7c0-1-0.4-1.8-1.1-2.5c-0.8-0.7-1.7-1-2.7-1c-1,0-1.9,0.3-2.7,1
                    c-0.8,0.7-1.1,1.5-1.1,2.5c0,1.1,0.4,2,1.1,2.6c0.8,0.7,1.6,1,2.7,1s1.9-0.3,2.7-1C144.6,137.6,145,136.8,145,135.7z
                    M154.9,153.6h-2.6v-26.4h2.6V153.6z"/>
                <path class="logo-footer-st2" d="M175.8,141.3c-0.6,0.1-1.1,0.2-1.7,0.3c-0.6,0.1-1.2,0.2-1.8,0.2c-0.7,0.1-1.4,0.1-2.2,0.2
                    c-0.8,0.1-1.7,0.1-2.8,0.1v3.9h-2.6v-3.9c-0.2,0-0.5,0-0.7,0s-0.5,0-0.7,0h-5.2v-2.3h6.5c2.5,0,4.6-0.1,6.4-0.2
                    c1.7-0.2,3.3-0.4,4.8-0.7V141.3z M172.5,133.3c0,0.8-0.2,1.5-0.5,2.1c-0.3,0.6-0.7,1.2-1.3,1.7c-0.5,0.5-1.2,0.8-2,1.1
                    c-0.8,0.3-1.6,0.4-2.5,0.4c-0.9,0-1.7-0.1-2.4-0.4c-0.8-0.3-1.4-0.6-2-1.1c-0.5-0.5-1-1-1.3-1.7c-0.3-0.6-0.5-1.3-0.5-2.1
                    c0-0.7,0.2-1.4,0.5-2.1c0.3-0.6,0.7-1.2,1.3-1.6c0.5-0.5,1.2-0.8,1.9-1.1c0.8-0.3,1.6-0.4,2.4-0.4c0.9,0,1.7,0.1,2.5,0.4
                    c0.8,0.3,1.4,0.6,2,1.1c0.6,0.4,1,1,1.3,1.7C172.4,131.8,172.5,132.5,172.5,133.3z M169.9,133.3c0-0.9-0.3-1.7-1-2.2
                    c-0.7-0.5-1.5-0.8-2.6-0.8c-1,0-1.9,0.3-2.5,0.8c-0.7,0.5-1,1.3-1,2.2c0,1,0.3,1.7,1,2.2c0.7,0.5,1.5,0.8,2.5,0.8
                    c1,0,1.9-0.3,2.5-0.8C169.6,134.9,169.9,134.2,169.9,133.3z M180.3,154.3h-14.2v-7.7h2.6v5.2h11.6V154.3z M180.1,147.5h-2.6v-2.1
                    h-6v-2.3h6v-15.8h2.6V147.5z"/>
            </g>
            <g>
                <rect x="195.6" y="132" class="logo-footer-st1" width="3.3" height="1.1"/>
                <path class="logo-footer-st1" d="M214.1,126.9h-22.1c-2.1,0-3.8,1.7-3.8,3.8v20.9c0,2.1,1.7,3.8,3.8,3.8h22.1c2.1,0,3.8-1.7,3.8-3.8v-20.9
                    C217.8,128.6,216.2,126.9,214.1,126.9z M194.4,129.5h1.2v1.4h3.3v-1.4h1.2v4.7h-5.6V129.5z M198.5,146.7v1.1h-5.6v-4.9h4.7v1.1
                    h-3.6v2.7H198.5z M201,153.4h-1.2v-3h-4.5v-1.1h5.7V153.4z M201.3,148.8h-1.2v-3h-2.6v-1.1h2.6v-2.6h1.2V148.8z M202.3,136.2
                    h-4.4v3.6h-1.2v-3.6h-4.4v-1.1h10V136.2z M203,134.3c0.3-0.1,0.6-0.3,0.9-0.5c0.3-0.2,0.6-0.5,0.8-0.8c0.2-0.3,0.4-0.7,0.6-1.1
                    c0.2-0.4,0.2-0.9,0.2-1.4v-1h1.2v1c0,0.2,0,0.5,0,0.7c0,0.2-0.1,0.4-0.1,0.6l2.5,2.5l-0.8,0.8l0,0l-2.2-2.1
                    c-0.2,0.3-0.3,0.5-0.5,0.8c-0.2,0.2-0.4,0.5-0.6,0.6c-0.2,0.2-0.4,0.3-0.6,0.5c-0.2,0.1-0.4,0.2-0.5,0.3l0,0L203,134.3L203,134.3
                    z M208.9,146.7v-1.1h2.1v-3.5h1.2v7.6H211v-3H208.9z M212,139.9h-5.8V136h1.2v2.8h4.6V139.9z M207.8,142.8v1.1l-0.1,0
                    c-0.2,0-0.4,0.1-0.8,0.1c-0.1,0-0.1,0-0.2,0c-0.3,0-0.6,0-0.9,0c-0.4,0-0.7-0.1-0.9-0.2c-0.3-0.1-0.4-0.2-0.5-0.3l0,0l0,0
                    l0.4-0.9l0.1,0c0.1,0.1,0.2,0.1,0.4,0.2c0.2,0.1,0.4,0.1,0.7,0.1c0.4,0,0.7,0,1,0C207.4,142.9,207.6,142.8,207.8,142.8
                    L207.8,142.8z M204.2,148.8L204.2,148.8L204.2,148.8l-0.8-0.9l0.1,0c0.8-0.3,1.6-0.6,2.1-1.1c0.5-0.4,0.9-0.9,1.2-1.3H204v-1.1
                    h4.5l0,0.1c0,0.3-0.1,0.7-0.3,1.1c-0.2,0.4-0.4,0.7-0.7,1.1l1.9,1.3l0,0.1l-0.7,0.9l0,0l-2-1.3c-0.4,0.3-0.8,0.6-1.2,0.8
                    C205,148.5,204.6,148.7,204.2,148.8z M212.3,153.1h-5.8v-3.6h1.2v2.5h4.6V153.1z M213.7,132.7h-1.9v3.8h-1.2v-7.6h1.2v2.7h1.9
                    V132.7z"/>
            </g>
        </g>
        <g>
            <g>
                <path class="logo-footer-st3" d="M33.1,169.1c-0.5-0.3-0.9-0.7-1.2-1.2c-0.3-0.5-0.5-1.1-0.5-1.8c0-0.7,0.2-1.3,0.5-1.8
                    c0.3-0.5,0.7-0.9,1.2-1.2c0.5-0.3,1.1-0.4,1.7-0.4c0.6,0,1.2,0.1,1.7,0.4c0.5,0.3,0.9,0.7,1.2,1.2c0.3,0.5,0.4,1.1,0.4,1.8
                    c0,0.7-0.2,1.3-0.4,1.8c-0.3,0.5-0.7,0.9-1.2,1.2c-0.5,0.3-1.1,0.4-1.7,0.4C34.1,169.6,33.6,169.4,33.1,169.1z M36.1,168.5
                    c0.4-0.2,0.7-0.5,0.9-0.9c0.2-0.4,0.3-0.9,0.3-1.4c0-0.5-0.1-1-0.3-1.4c-0.2-0.4-0.5-0.7-0.9-0.9c-0.4-0.2-0.8-0.3-1.3-0.3
                    c-0.5,0-0.9,0.1-1.3,0.3c-0.4,0.2-0.7,0.5-0.9,0.9c-0.2,0.4-0.3,0.9-0.3,1.4c0,0.5,0.1,1,0.3,1.4c0.2,0.4,0.5,0.7,0.9,0.9
                    c0.4,0.2,0.8,0.3,1.3,0.3C35.3,168.8,35.7,168.7,36.1,168.5z"/>
                <path class="logo-footer-st3" d="M44.7,169.5h-0.9l-3.6-5.4v5.4h-0.9v-6.8h0.9l3.6,5.4v-5.4h0.9V169.5z"/>
                <path class="logo-footer-st3" d="M53.1,162.7v6.7h-0.9v-5l-2.2,5h-0.6l-2.3-5v5h-0.9v-6.7h1l2.5,5.6l2.5-5.6H53.1z"/>
                <path class="logo-footer-st3" d="M56,169.1c-0.5-0.3-0.9-0.7-1.2-1.2c-0.3-0.5-0.5-1.1-0.5-1.8c0-0.7,0.2-1.3,0.5-1.8
                    c0.3-0.5,0.7-0.9,1.2-1.2c0.5-0.3,1.1-0.4,1.7-0.4c0.6,0,1.2,0.1,1.7,0.4c0.5,0.3,0.9,0.7,1.2,1.2c0.3,0.5,0.4,1.1,0.4,1.8
                    c0,0.7-0.2,1.3-0.4,1.8c-0.3,0.5-0.7,0.9-1.2,1.2c-0.5,0.3-1.1,0.4-1.7,0.4C57.1,169.6,56.5,169.4,56,169.1z M59,168.5
                    c0.4-0.2,0.7-0.5,0.9-0.9c0.2-0.4,0.3-0.9,0.3-1.4c0-0.5-0.1-1-0.3-1.4c-0.2-0.4-0.5-0.7-0.9-0.9c-0.4-0.2-0.8-0.3-1.3-0.3
                    c-0.5,0-0.9,0.1-1.3,0.3c-0.4,0.2-0.7,0.5-0.9,0.9c-0.2,0.4-0.3,0.9-0.3,1.4c0,0.5,0.1,1,0.3,1.4c0.2,0.4,0.5,0.7,0.9,0.9
                    c0.4,0.2,0.8,0.3,1.3,0.3C58.2,168.8,58.6,168.7,59,168.5z"/>
                <path class="logo-footer-st3" d="M69.2,162.7v6.7h-0.9v-5l-2.2,5h-0.6l-2.3-5v5h-0.9v-6.7h1l2.5,5.6l2.5-5.6H69.2z"/>
                <path class="logo-footer-st3" d="M77,169.5l-2.8-3.1v3.1h-0.9v-6.8h0.9v3.2l2.8-3.2h1.1l-3.1,3.4l3.1,3.4H77z"/>
                <path class="logo-footer-st3" d="M80.5,169.1c-0.5-0.3-0.9-0.7-1.2-1.2c-0.3-0.5-0.5-1.1-0.5-1.8c0-0.7,0.2-1.3,0.5-1.8
                    c0.3-0.5,0.7-0.9,1.2-1.2c0.5-0.3,1.1-0.4,1.7-0.4c0.6,0,1.2,0.1,1.7,0.4c0.5,0.3,0.9,0.7,1.2,1.2c0.3,0.5,0.4,1.1,0.4,1.8
                    c0,0.7-0.2,1.3-0.4,1.8c-0.3,0.5-0.7,0.9-1.2,1.2c-0.5,0.3-1.1,0.4-1.7,0.4C81.6,169.6,81,169.4,80.5,169.1z M83.5,168.5
                    c0.4-0.2,0.7-0.5,0.9-0.9c0.2-0.4,0.3-0.9,0.3-1.4c0-0.5-0.1-1-0.3-1.4c-0.2-0.4-0.5-0.7-0.9-0.9c-0.4-0.2-0.8-0.3-1.3-0.3
                    c-0.5,0-0.9,0.1-1.3,0.3c-0.4,0.2-0.7,0.5-0.9,0.9c-0.2,0.4-0.3,0.9-0.3,1.4c0,0.5,0.1,1,0.3,1.4c0.2,0.4,0.5,0.7,0.9,0.9
                    c0.4,0.2,0.8,0.3,1.3,0.3C82.7,168.8,83.1,168.7,83.5,168.5z"/>
                <path class="logo-footer-st3" d="M90.4,169.5l-1.6-2.8h-1.1v2.8h-0.9v-6.8H89c0.5,0,0.9,0.1,1.3,0.3c0.4,0.2,0.6,0.4,0.8,0.7
                    c0.2,0.3,0.3,0.6,0.3,1c0,0.5-0.1,0.9-0.4,1.2c-0.3,0.4-0.7,0.6-1.2,0.7l1.7,2.8H90.4z M87.7,166H89c0.5,0,0.8-0.1,1.1-0.4
                    c0.2-0.2,0.4-0.6,0.4-1c0-0.4-0.1-0.7-0.4-0.9c-0.2-0.2-0.6-0.3-1.1-0.3h-1.3V166z"/>
                <path class="logo-footer-st3" d="M93.6,163.4v2.3h2.5v0.7h-2.5v2.3h2.8v0.7h-3.7v-6.8h3.7v0.7H93.6z"/>
                <path class="logo-footer-st3" d="M101.8,168h-3l-0.5,1.5h-0.9l2.5-6.8h1l2.5,6.8h-0.9L101.8,168z M101.5,167.3l-1.2-3.4l-1.2,3.4H101.5z"/>
                <path class="logo-footer-st3" d="M109.7,169.5h-0.9l-3.6-5.4v5.4h-0.9v-6.8h0.9l3.6,5.4v-5.4h0.9V169.5z"/>
                <path class="logo-footer-st3" d="M120.7,162.7v6.7h-0.9v-5l-2.2,5h-0.6l-2.3-5v5h-0.9v-6.7h1l2.5,5.6l2.5-5.6H120.7z"/>
                <path class="logo-footer-st3" d="M123.1,163.4v2.3h2.5v0.7h-2.5v2.3h2.8v0.7h-3.7v-6.8h3.7v0.7H123.1z"/>
                <path class="logo-footer-st3" d="M131.2,163.1c0.5,0.3,1,0.7,1.2,1.2c0.3,0.5,0.4,1.1,0.4,1.8s-0.1,1.3-0.4,1.8c-0.3,0.5-0.7,0.9-1.2,1.2
                    c-0.5,0.3-1.2,0.4-1.9,0.4h-2.1v-6.8h2.1C130,162.7,130.7,162.8,131.2,163.1z M131.3,168.1c0.5-0.5,0.7-1.1,0.7-2
                    c0-0.8-0.2-1.5-0.7-2c-0.5-0.5-1.1-0.7-2-0.7h-1.2v5.3h1.2C130.2,168.8,130.8,168.5,131.3,168.1z"/>
                <path class="logo-footer-st3" d="M135,162.7v6.8h-0.9v-6.8H135z"/>
                <path class="logo-footer-st3" d="M136.6,164.3c0.3-0.5,0.7-0.9,1.2-1.2c0.5-0.3,1.1-0.5,1.7-0.5c0.7,0,1.4,0.2,1.9,0.5c0.6,0.4,1,0.9,1.2,1.5
                    h-1.1c-0.2-0.4-0.5-0.7-0.8-0.9c-0.4-0.2-0.8-0.3-1.3-0.3c-0.5,0-0.9,0.1-1.3,0.3c-0.4,0.2-0.7,0.5-0.9,0.9
                    c-0.2,0.4-0.3,0.9-0.3,1.4c0,0.5,0.1,1,0.3,1.4c0.2,0.4,0.5,0.7,0.9,0.9c0.4,0.2,0.8,0.3,1.3,0.3c0.5,0,0.9-0.1,1.3-0.3
                    c0.4-0.2,0.6-0.5,0.8-0.9h1.1c-0.3,0.7-0.7,1.2-1.2,1.5c-0.6,0.4-1.2,0.5-1.9,0.5c-0.6,0-1.2-0.1-1.7-0.4
                    c-0.5-0.3-0.9-0.7-1.2-1.2c-0.3-0.5-0.5-1.1-0.5-1.8C136.1,165.4,136.3,164.8,136.6,164.3z"/>
                <path class="logo-footer-st3" d="M144.9,162.7v6.8H144v-6.8H144.9z"/>
                <path class="logo-footer-st3" d="M151.7,169.5h-0.9l-3.6-5.4v5.4h-0.9v-6.8h0.9l3.6,5.4v-5.4h0.9V169.5z"/>
                <path class="logo-footer-st3" d="M154.1,163.4v2.3h2.5v0.7h-2.5v2.3h2.8v0.7h-3.7v-6.8h3.7v0.7H154.1z"/>
                <path class="logo-footer-st3" d="M161,164.3c0.3-0.5,0.7-0.9,1.2-1.2c0.5-0.3,1.1-0.5,1.7-0.5c0.7,0,1.4,0.2,1.9,0.5c0.6,0.4,1,0.9,1.2,1.5
                    H166c-0.2-0.4-0.5-0.7-0.8-0.9c-0.4-0.2-0.8-0.3-1.3-0.3c-0.5,0-0.9,0.1-1.3,0.3c-0.4,0.2-0.7,0.5-0.9,0.9
                    c-0.2,0.4-0.3,0.9-0.3,1.4c0,0.5,0.1,1,0.3,1.4c0.2,0.4,0.5,0.7,0.9,0.9c0.4,0.2,0.8,0.3,1.3,0.3c0.5,0,0.9-0.1,1.3-0.3
                    c0.4-0.2,0.6-0.5,0.8-0.9h1.1c-0.3,0.7-0.7,1.2-1.2,1.5c-0.6,0.4-1.2,0.5-1.9,0.5c-0.6,0-1.2-0.1-1.7-0.4
                    c-0.5-0.3-0.9-0.7-1.2-1.2c-0.3-0.5-0.5-1.1-0.5-1.8C160.5,165.4,160.7,164.8,161,164.3z"/>
                <path class="logo-footer-st3" d="M169.3,168.8h2.4v0.7h-3.3v-6.8h0.9V168.8z"/>
                <path class="logo-footer-st3" d="M173.5,162.7v6.8h-0.9v-6.8H173.5z"/>
                <path class="logo-footer-st3" d="M180.4,169.5h-0.9l-3.6-5.4v5.4H175v-6.8h0.9l3.6,5.4v-5.4h0.9V169.5z"/>
                <path class="logo-footer-st3" d="M182.8,162.7v6.8h-0.9v-6.8H182.8z"/>
                <path class="logo-footer-st3" d="M184.4,164.3c0.3-0.5,0.7-0.9,1.2-1.2c0.5-0.3,1.1-0.5,1.7-0.5c0.7,0,1.4,0.2,1.9,0.5c0.6,0.4,1,0.9,1.2,1.5
                    h-1.1c-0.2-0.4-0.5-0.7-0.8-0.9c-0.4-0.2-0.8-0.3-1.3-0.3c-0.5,0-0.9,0.1-1.3,0.3c-0.4,0.2-0.7,0.5-0.9,0.9
                    c-0.2,0.4-0.3,0.9-0.3,1.4c0,0.5,0.1,1,0.3,1.4c0.2,0.4,0.5,0.7,0.9,0.9c0.4,0.2,0.8,0.3,1.3,0.3c0.5,0,0.9-0.1,1.3-0.3
                    c0.4-0.2,0.6-0.5,0.8-0.9h1.1c-0.3,0.7-0.7,1.2-1.2,1.5c-0.6,0.4-1.2,0.5-1.9,0.5c-0.6,0-1.2-0.1-1.7-0.4
                    c-0.5-0.3-0.9-0.7-1.2-1.2c-0.3-0.5-0.5-1.1-0.5-1.8C183.9,165.4,184.1,164.8,184.4,164.3z"/>
            </g>
        </g>
    </g>
</svg>
