<svg version="1.1" xmlns="http://www.w3.org/2000/svg" xmlns:xlink="http://www.w3.org/1999/xlink" x="0px" y="0px" viewBox="0 0 248.8 67.2" style="enable-background:new 0 0 248.8 67.2;" xml:space="preserve">
    <style>
        .logo-st0{fill:#F5BDB2;}
        .logo-st1{fill:#D89FA0;}
        .logo-st2{fill:#757575;}
        .logo-st3{fill:#949394;}
    </style>
    <g>
        <g>
            <g>
                <g>
                    <g>
                        <path class="logo-st0" d="M24.6,37.1h6.1l0-5.1c-2.8-0.5-4.9-3-4.9-5.9c0-3.3,2.7-6,6-6c3.3,0,6,2.7,6,6c0,2.9-2.1,5.4-4.9,5.9v5.2
                            c0,1.2-1.1,2.2-2.3,2.2h-4.1v4.7h15.6v0c0.1,0,0.2,0,0.2,0h7.8v-15c0-2,1.6-3.6,3.6-3.6h4.4c-4.2-6.5-11.5-10.9-19.8-10.9H14.9
                            v12.9C15,32.9,19.3,37.1,24.6,37.1z M38.2,33.4c0-0.6,0.5-1.2,1.2-1.2h7.3c0.6,0,1.2,0.5,1.2,1.2v7.3c0,0.6-0.5,1.2-1.2,1.2
                            h-7.3c-0.6,0-1.2-0.5-1.2-1.2V33.4z"/>
                    </g>
                </g>
                <g>
                    <rect x="40.6" y="34.6" class="logo-st0" width="5" height="5"/>
                </g>
                <g>
                    <circle class="logo-st0" cx="31.9" cy="26.1" r="3.7"/>
                </g>
                <polygon class="logo-st1" points="50.3,51.1 50.3,47.7 50.3,46.5 43.6,46.5 43.6,51.1 			"/>
                <path class="logo-st1" d="M59.6,27.9h-5.7c-0.7,0-1.3,0.6-1.3,1.3v16.1v2.4v4.6c0,0.6-0.5,1.2-1.2,1.2h-9c-0.6,0-1.2-0.5-1.2-1.2v-5.8
                    H25.4c-0.6,0-1.2-0.5-1.2-1.2v-5.9c-3.8-0.1-7.2-2-9.4-4.9v3.8c0,13,10.5,23.6,23.6,23.6S62,51.3,62,38.3
                    C62,34.6,61.1,31,59.6,27.9z"/>
                <g>
                    <path class="logo-st0" d="M14.9,8.6c0-3.4-2.7-6.1-6.1-6.1c-3.4,0-6.1,2.7-6.1,6.1s2.7,6.1,6.1,6.1l6.1,0V8.6z"/>
                </g>
            </g>
        </g>
        <g>
            <g>
                <path class="logo-st2" d="M93.4,38.5H68.6v-2.5h11v-2.4c-0.8-0.1-1.5-0.3-2.2-0.6c-0.7-0.3-1.2-0.7-1.7-1.2c-0.5-0.5-0.9-1-1.2-1.7
                    c-0.3-0.6-0.4-1.3-0.4-2.1c0-0.8,0.2-1.6,0.5-2.3c0.3-0.7,0.8-1.3,1.4-1.8c0.6-0.5,1.3-0.9,2.1-1.2c0.8-0.3,1.7-0.4,2.6-0.4
                    c0.9,0,1.8,0.1,2.6,0.4c0.8,0.3,1.5,0.7,2.1,1.2c0.6,0.5,1.1,1.1,1.4,1.8c0.3,0.7,0.5,1.5,0.5,2.3c0,1.4-0.5,2.6-1.5,3.6
                    s-2.2,1.6-3.8,1.9v2.4h11.2V38.5z M88.5,48.9H74.2v-8.3h2.6v5.9h11.7V48.9z M84.7,28.1c0-1-0.4-1.8-1.2-2.5c-0.8-0.7-1.7-1-2.8-1
                    c-1.1,0-2,0.3-2.8,1c-0.8,0.6-1.1,1.5-1.1,2.5c0,1,0.4,1.8,1.1,2.4c0.8,0.6,1.7,0.9,2.8,0.9c1.1,0,2.1-0.3,2.8-0.9
                    C84.3,30,84.7,29.2,84.7,28.1z"/>
                <path class="logo-st2" d="M107.6,35.2H96.1V23.8h11.5V35.2z M105,32.7v-6.5h-6.2v6.5H105z M115.3,49h-13.6v-9.7h13.6V49z M112.6,46.6
                    v-4.8h-8.2v4.8H112.6z M120.3,30.6h-4.7v7.5H113V21.9h2.6v6.3h4.7V30.6z"/>
                <path class="logo-st2" d="M134.7,32.7c0,0.9-0.2,1.8-0.5,2.6c-0.3,0.8-0.8,1.5-1.4,2.2c-0.6,0.6-1.3,1.1-2.1,1.5
                    c-0.8,0.4-1.7,0.5-2.7,0.5c-1,0-1.9-0.2-2.7-0.5c-0.8-0.4-1.5-0.8-2.1-1.5c-0.6-0.6-1-1.3-1.4-2.2c-0.3-0.8-0.5-1.7-0.5-2.6
                    c0-0.9,0.2-1.8,0.5-2.6c0.3-0.8,0.8-1.6,1.4-2.2c0.6-0.6,1.3-1.1,2.1-1.4c0.8-0.4,1.7-0.5,2.6-0.5c1,0,1.8,0.2,2.7,0.5
                    c0.8,0.4,1.5,0.9,2.1,1.5c0.6,0.6,1.1,1.3,1.4,2.2C134.5,30.9,134.7,31.7,134.7,32.7z M131.9,32.7c0-0.5-0.1-1.1-0.3-1.6
                    c-0.2-0.5-0.4-1-0.8-1.4c-0.3-0.4-0.7-0.8-1.2-1c-0.5-0.3-1.1-0.4-1.7-0.4c-0.6,0-1.2,0.1-1.6,0.4c-0.5,0.3-0.9,0.6-1.2,1
                    c-0.4,0.4-0.6,0.9-0.8,1.4c-0.2,0.5-0.3,1.1-0.3,1.6c0,0.6,0.1,1.1,0.3,1.6c0.2,0.5,0.5,1,0.8,1.4c0.3,0.4,0.7,0.7,1.2,1
                    c0.5,0.2,1,0.4,1.6,0.4c0.6,0,1.2-0.1,1.7-0.4c0.5-0.2,0.9-0.6,1.2-1c0.3-0.4,0.6-0.8,0.8-1.4C131.8,33.8,131.9,33.3,131.9,32.7z
                    M143.3,48.2h-2.6V37.5h-5.3v-2.4h5.3v-4.2h-5.3v-2.4h5.3v-6.6h2.6V48.2z"/>
                <path class="logo-st2" d="M159.6,34.5l-1.8,1.8l-5.5-5.4c-0.4,0.8-0.9,1.5-1.4,2.1c-0.5,0.6-1,1.1-1.6,1.6c-0.5,0.5-1,0.9-1.6,1.2
                    c-0.5,0.3-0.9,0.6-1.3,0.7l-1.8-2c0.7-0.3,1.4-0.7,2.2-1.3c0.7-0.5,1.4-1.2,2-2c0.6-0.8,1.1-1.7,1.5-2.8c0.4-1,0.6-2.2,0.6-3.5
                    v-1.9h2.7V25c0,0.6,0,1.2-0.1,1.7c-0.1,0.6-0.2,1.1-0.3,1.6L159.6,34.5z M166.8,43.8c0,0.8-0.2,1.6-0.5,2.3
                    c-0.4,0.7-0.8,1.3-1.4,1.8c-0.6,0.5-1.3,0.9-2,1.2c-0.8,0.3-1.6,0.4-2.5,0.4c-0.9,0-1.8-0.1-2.6-0.4c-0.8-0.3-1.5-0.7-2.1-1.2
                    c-0.6-0.5-1-1.1-1.4-1.8c-0.3-0.7-0.5-1.5-0.5-2.3c0-0.8,0.2-1.5,0.5-2.2c0.4-0.7,0.8-1.3,1.4-1.8c0.6-0.5,1.3-0.9,2.1-1.2
                    c0.8-0.3,1.6-0.5,2.5-0.5c0.9,0,1.7,0.2,2.5,0.5c0.8,0.3,1.5,0.7,2,1.2c0.6,0.5,1.1,1.1,1.4,1.8
                    C166.6,42.3,166.8,43.1,166.8,43.8z M164,43.8c0-1-0.4-1.8-1.2-2.4c-0.8-0.6-1.6-0.9-2.6-0.9c-1.1,0-2,0.3-2.7,1
                    c-0.7,0.7-1.1,1.4-1.1,2.4c0,0.9,0.4,1.7,1.1,2.4c0.7,0.7,1.6,1,2.7,1c1,0,1.9-0.3,2.6-0.9C163.7,45.6,164,44.8,164,43.8z
                    M167.3,38.1h-2.6v-8.3h-6.2v-2.5h6.2v-5.5h2.6V38.1z"/>
                <path class="logo-st2" d="M185.9,29.9h-6.5c-0.9,0-1.6,0.1-2.2,0.3c-0.6,0.2-1,0.5-1.4,0.9c-0.5,0.6-0.8,1.4-0.7,2.2
                    c0,0.9,0.4,1.6,1.1,2.1c0.7,0.5,1.4,0.7,2.4,0.7c0.9-0.1,1.6-0.4,2.2-0.9c0.2-0.2,0.4-0.4,0.5-0.7c0.1-0.3,0.2-0.6,0.2-0.9
                    c0-0.3-0.1-0.6-0.2-0.9c-0.1-0.3-0.4-0.5-0.7-0.7l1.9-1.6c0.4,0.3,0.8,0.6,1,1.1c0.3,0.5,0.5,1,0.5,1.6c0.1,0.6,0.1,1.2-0.1,1.8
                    c-0.1,0.6-0.4,1.2-0.9,1.8c-0.4,0.5-0.9,1-1.6,1.3c-0.7,0.3-1.4,0.5-2.2,0.6c-0.8,0.1-1.6,0.1-2.4-0.1c-0.8-0.1-1.5-0.4-2.1-0.9
                    c-0.7-0.4-1.2-1-1.5-1.6c-0.3-0.6-0.5-1.3-0.6-1.9c-0.1-0.7,0-1.3,0.1-1.9c0.1-0.6,0.4-1.1,0.7-1.5c0-0.1,0.2-0.2,0.4-0.3
                    c0.2-0.2,0.4-0.3,0.6-0.3h-3.7v-2.4h15.4V29.9z M182.7,25.9c-0.6,0.1-1.5,0.1-2.5,0.1c-1,0-2.1,0-3.3-0.1c-1-0.1-1.7-0.3-2.3-0.5
                    c-0.6-0.2-1-0.4-1.3-0.6l0.8-2c0.3,0.2,0.7,0.3,1.2,0.4c0.5,0.1,1.1,0.2,1.8,0.3c1,0.1,2,0.1,3.1,0.1c1,0,1.9-0.1,2.5-0.2V25.9z
                    M192,49h-14.2v-8.4h2.7v5.9H192V49z M196.2,32.3h-4.6v9.2H189V21.9h2.6v8h4.6V32.3z"/>
                <path class="logo-st2" d="M216.1,40.8c-0.8,0.1-1.6,0.3-2.4,0.4c-0.8,0.1-1.7,0.2-2.6,0.3c-0.9,0.1-1.9,0.1-3,0.2
                    c-1.1,0-2.2,0.1-3.5,0.1h-6.9v-2.5h7.1c2.6,0,4.8-0.1,6.5-0.2s3.3-0.4,4.8-0.7V40.8z M212.2,30.3c0,0.9-0.2,1.7-0.5,2.4
                    c-0.4,0.7-0.8,1.4-1.4,1.9c-0.6,0.5-1.3,1-2.1,1.3c-0.8,0.3-1.6,0.4-2.5,0.4c-0.9,0-1.7-0.1-2.5-0.4c-0.8-0.3-1.5-0.7-2.1-1.2
                    c-0.6-0.5-1.1-1.2-1.4-1.9c-0.3-0.7-0.5-1.6-0.5-2.5c0-0.8,0.2-1.6,0.5-2.4c0.3-0.7,0.8-1.4,1.4-1.9c0.6-0.5,1.3-0.9,2.1-1.3
                    c0.8-0.3,1.6-0.5,2.6-0.5c0.9,0,1.7,0.1,2.5,0.4c0.8,0.3,1.5,0.7,2.1,1.2c0.6,0.5,1,1.2,1.4,1.9
                    C212.1,28.6,212.2,29.4,212.2,30.3z M209.6,30.3c0-1-0.4-1.8-1.1-2.5c-0.8-0.7-1.7-1-2.7-1c-1,0-1.9,0.3-2.7,1
                    c-0.8,0.7-1.1,1.5-1.1,2.5c0,1.1,0.4,2,1.1,2.6c0.8,0.7,1.6,1,2.7,1c1,0,1.9-0.3,2.7-1C209.2,32.2,209.6,31.4,209.6,30.3z
                    M219.5,48.2h-2.6V21.9h2.6V48.2z"/>
                <path class="logo-st2" d="M240.4,35.9c-0.6,0.1-1.1,0.2-1.7,0.3c-0.6,0.1-1.2,0.2-1.8,0.2c-0.7,0.1-1.4,0.1-2.2,0.2
                    c-0.8,0.1-1.7,0.1-2.8,0.1v3.9h-2.6v-3.9c-0.2,0-0.5,0-0.7,0c-0.2,0-0.5,0-0.7,0h-5.2v-2.3h6.5c2.5,0,4.6-0.1,6.4-0.2
                    c1.7-0.2,3.3-0.4,4.8-0.7V35.9z M237.1,27.9c0,0.8-0.2,1.5-0.5,2.1c-0.3,0.6-0.7,1.2-1.3,1.7c-0.5,0.5-1.2,0.8-2,1.1
                    c-0.8,0.3-1.6,0.4-2.5,0.4c-0.9,0-1.7-0.1-2.4-0.4c-0.8-0.3-1.4-0.6-2-1.1c-0.5-0.5-1-1-1.3-1.7c-0.3-0.6-0.5-1.3-0.5-2.1
                    c0-0.7,0.1-1.4,0.5-2.1c0.3-0.6,0.7-1.2,1.3-1.6c0.5-0.5,1.2-0.8,1.9-1.1c0.8-0.3,1.6-0.4,2.4-0.4c0.9,0,1.7,0.1,2.5,0.4
                    c0.8,0.3,1.4,0.6,2,1.1c0.6,0.5,1,1,1.3,1.7C237,26.4,237.1,27.1,237.1,27.9z M234.5,27.9c0-0.9-0.3-1.7-1-2.2
                    c-0.7-0.5-1.5-0.8-2.6-0.8c-1,0-1.9,0.3-2.5,0.8c-0.7,0.5-1,1.3-1,2.2c0,1,0.3,1.7,1,2.2c0.7,0.5,1.5,0.8,2.5,0.8
                    c1,0,1.9-0.3,2.5-0.8C234.2,29.5,234.5,28.8,234.5,27.9z M244.9,49h-14.2v-7.7h2.6v5.2h11.6V49z M244.7,42.1h-2.6V40h-6v-2.3h6
                    V21.9h2.6V42.1z"/>
            </g>
        </g>
        <g>
            <g>
                <path class="logo-st3" d="M78.9,63.7c-0.5-0.3-0.9-0.7-1.2-1.2c-0.3-0.5-0.5-1.1-0.5-1.8c0-0.7,0.2-1.3,0.5-1.8
                    c0.3-0.5,0.7-0.9,1.2-1.2c0.5-0.3,1.1-0.4,1.7-0.4c0.6,0,1.2,0.1,1.7,0.4c0.5,0.3,0.9,0.7,1.2,1.2c0.3,0.5,0.4,1.1,0.4,1.8
                    s-0.2,1.3-0.4,1.8c-0.3,0.5-0.7,0.9-1.2,1.2c-0.5,0.3-1.1,0.4-1.7,0.4C80,64.2,79.4,64,78.9,63.7z M81.9,63.1
                    c0.4-0.2,0.7-0.5,0.9-0.9c0.2-0.4,0.3-0.9,0.3-1.4c0-0.5-0.1-1-0.3-1.4c-0.2-0.4-0.5-0.7-0.9-0.9c-0.4-0.2-0.8-0.3-1.3-0.3
                    c-0.5,0-0.9,0.1-1.3,0.3c-0.4,0.2-0.7,0.5-0.9,0.9c-0.2,0.4-0.3,0.9-0.3,1.4c0,0.5,0.1,1,0.3,1.4c0.2,0.4,0.5,0.7,0.9,0.9
                    c0.4,0.2,0.8,0.3,1.3,0.3C81.1,63.4,81.5,63.3,81.9,63.1z"/>
                <path class="logo-st3" d="M90.6,64.1h-0.9l-3.6-5.4v5.4h-0.9v-6.8h0.9l3.6,5.4v-5.4h0.9V64.1z"/>
                <path class="logo-st3" d="M99,57.3v6.7h-0.9v-5l-2.2,5h-0.6l-2.3-5v5h-0.9v-6.7h1l2.5,5.6l2.5-5.6H99z"/>
                <path class="logo-st3" d="M101.8,63.7c-0.5-0.3-0.9-0.7-1.2-1.2c-0.3-0.5-0.5-1.1-0.5-1.8c0-0.7,0.2-1.3,0.5-1.8
                    c0.3-0.5,0.7-0.9,1.2-1.2c0.5-0.3,1.1-0.4,1.7-0.4c0.6,0,1.2,0.1,1.7,0.4c0.5,0.3,0.9,0.7,1.2,1.2c0.3,0.5,0.4,1.1,0.4,1.8
                    s-0.2,1.3-0.4,1.8c-0.3,0.5-0.7,0.9-1.2,1.2c-0.5,0.3-1.1,0.4-1.7,0.4C102.9,64.2,102.3,64,101.8,63.7z M104.8,63.1
                    c0.4-0.2,0.7-0.5,0.9-0.9c0.2-0.4,0.3-0.9,0.3-1.4c0-0.5-0.1-1-0.3-1.4c-0.2-0.4-0.5-0.7-0.9-0.9c-0.4-0.2-0.8-0.3-1.3-0.3
                    c-0.5,0-0.9,0.1-1.3,0.3c-0.4,0.2-0.7,0.5-0.9,0.9c-0.2,0.4-0.3,0.9-0.3,1.4c0,0.5,0.1,1,0.3,1.4c0.2,0.4,0.5,0.7,0.9,0.9
                    c0.4,0.2,0.8,0.3,1.3,0.3C104,63.4,104.4,63.3,104.8,63.1z"/>
                <path class="logo-st3" d="M115,57.3v6.7h-0.9v-5l-2.2,5h-0.6l-2.3-5v5h-0.9v-6.7h1l2.5,5.6l2.5-5.6H115z"/>
                <path class="logo-st3" d="M122.8,64.1L120,61v3.1h-0.9v-6.8h0.9v3.2l2.8-3.2h1.1l-3.1,3.4l3.1,3.4H122.8z"/>
                <path class="logo-st3" d="M126.3,63.7c-0.5-0.3-0.9-0.7-1.2-1.2c-0.3-0.5-0.5-1.1-0.5-1.8c0-0.7,0.2-1.3,0.5-1.8
                    c0.3-0.5,0.7-0.9,1.2-1.2c0.5-0.3,1.1-0.4,1.7-0.4c0.6,0,1.2,0.1,1.7,0.4c0.5,0.3,0.9,0.7,1.2,1.2c0.3,0.5,0.4,1.1,0.4,1.8
                    s-0.1,1.3-0.4,1.8c-0.3,0.5-0.7,0.9-1.2,1.2c-0.5,0.3-1.1,0.4-1.7,0.4C127.4,64.2,126.9,64,126.3,63.7z M129.3,63.1
                    c0.4-0.2,0.7-0.5,0.9-0.9c0.2-0.4,0.3-0.9,0.3-1.4c0-0.5-0.1-1-0.3-1.4c-0.2-0.4-0.5-0.7-0.9-0.9c-0.4-0.2-0.8-0.3-1.3-0.3
                    c-0.5,0-0.9,0.1-1.3,0.3c-0.4,0.2-0.7,0.5-0.9,0.9c-0.2,0.4-0.3,0.9-0.3,1.4c0,0.5,0.1,1,0.3,1.4c0.2,0.4,0.5,0.7,0.9,0.9
                    c0.4,0.2,0.8,0.3,1.3,0.3C128.5,63.4,129,63.3,129.3,63.1z"/>
                <path class="logo-st3" d="M136.2,64.1l-1.6-2.8h-1.1v2.8h-0.9v-6.8h2.2c0.5,0,0.9,0.1,1.3,0.3c0.4,0.2,0.6,0.4,0.8,0.7
                    c0.2,0.3,0.3,0.6,0.3,1c0,0.5-0.1,0.9-0.4,1.2c-0.3,0.4-0.7,0.6-1.2,0.7l1.7,2.8H136.2z M133.5,60.6h1.3c0.5,0,0.8-0.1,1.1-0.4
                    c0.2-0.2,0.4-0.6,0.4-1c0-0.4-0.1-0.7-0.4-0.9c-0.2-0.2-0.6-0.3-1.1-0.3h-1.3V60.6z"/>
                <path class="logo-st3" d="M139.5,58v2.3h2.5V61h-2.5v2.3h2.8v0.7h-3.7v-6.8h3.7V58H139.5z"/>
                <path class="logo-st3" d="M147.6,62.6h-3l-0.5,1.5h-0.9l2.5-6.8h1l2.5,6.8h-0.9L147.6,62.6z M147.3,61.9l-1.2-3.4l-1.2,3.4H147.3z"/>
                <path class="logo-st3" d="M155.5,64.1h-0.9l-3.6-5.4v5.4h-0.9v-6.8h0.9l3.6,5.4v-5.4h0.9V64.1z"/>
                <path class="logo-st3" d="M166.5,57.3v6.7h-0.9v-5l-2.2,5h-0.6l-2.3-5v5h-0.9v-6.7h1l2.5,5.6l2.5-5.6H166.5z"/>
                <path class="logo-st3" d="M168.9,58v2.3h2.5V61h-2.5v2.3h2.8v0.7H168v-6.8h3.7V58H168.9z"/>
                <path class="logo-st3" d="M177.1,57.7c0.5,0.3,1,0.7,1.2,1.2c0.3,0.5,0.4,1.1,0.4,1.8s-0.1,1.3-0.4,1.8c-0.3,0.5-0.7,0.9-1.2,1.2
                    c-0.5,0.3-1.2,0.4-1.9,0.4H173v-6.8h2.1C175.9,57.3,176.5,57.4,177.1,57.7z M177.1,62.7c0.5-0.5,0.7-1.1,0.7-2
                    c0-0.8-0.2-1.5-0.7-2c-0.5-0.5-1.1-0.7-2-0.7h-1.2v5.3h1.2C176,63.4,176.7,63.1,177.1,62.7z"/>
                <path class="logo-st3" d="M180.8,57.3v6.8h-0.9v-6.8H180.8z"/>
                <path class="logo-st3" d="M182.4,58.9c0.3-0.5,0.7-0.9,1.2-1.2c0.5-0.3,1.1-0.5,1.7-0.5c0.7,0,1.4,0.2,1.9,0.5c0.6,0.4,1,0.9,1.2,1.5
                    h-1.1c-0.2-0.4-0.5-0.7-0.8-0.9c-0.4-0.2-0.8-0.3-1.3-0.3c-0.5,0-0.9,0.1-1.3,0.3c-0.4,0.2-0.7,0.5-0.9,0.9
                    c-0.2,0.4-0.3,0.9-0.3,1.4c0,0.5,0.1,1,0.3,1.4c0.2,0.4,0.5,0.7,0.9,0.9s0.8,0.3,1.3,0.3c0.5,0,0.9-0.1,1.3-0.3
                    c0.4-0.2,0.6-0.5,0.8-0.9h1.1c-0.3,0.7-0.7,1.2-1.2,1.5c-0.6,0.4-1.2,0.5-1.9,0.5c-0.6,0-1.2-0.1-1.7-0.4
                    c-0.5-0.3-0.9-0.7-1.2-1.2c-0.3-0.5-0.5-1.1-0.5-1.8C182,60,182.1,59.4,182.4,58.9z"/>
                <path class="logo-st3" d="M190.7,57.3v6.8h-0.9v-6.8H190.7z"/>
                <path class="logo-st3" d="M197.6,64.1h-0.9l-3.6-5.4v5.4h-0.9v-6.8h0.9l3.6,5.4v-5.4h0.9V64.1z"/>
                <path class="logo-st3" d="M200,58v2.3h2.5V61H200v2.3h2.8v0.7h-3.7v-6.8h3.7V58H200z"/>
                <path class="logo-st3" d="M206.8,58.9c0.3-0.5,0.7-0.9,1.2-1.2c0.5-0.3,1.1-0.5,1.7-0.5c0.7,0,1.4,0.2,1.9,0.5s1,0.9,1.2,1.5h-1.1
                    c-0.2-0.4-0.5-0.7-0.8-0.9c-0.4-0.2-0.8-0.3-1.3-0.3c-0.5,0-0.9,0.1-1.3,0.3c-0.4,0.2-0.7,0.5-0.9,0.9c-0.2,0.4-0.3,0.9-0.3,1.4
                    c0,0.5,0.1,1,0.3,1.4c0.2,0.4,0.5,0.7,0.9,0.9s0.8,0.3,1.3,0.3c0.5,0,0.9-0.1,1.3-0.3c0.4-0.2,0.6-0.5,0.8-0.9h1.1
                    c-0.3,0.7-0.7,1.2-1.2,1.5c-0.6,0.4-1.2,0.5-1.9,0.5c-0.6,0-1.2-0.1-1.7-0.4c-0.5-0.3-0.9-0.7-1.2-1.2c-0.3-0.5-0.5-1.1-0.5-1.8
                    C206.4,60,206.5,59.4,206.8,58.9z"/>
                <path class="logo-st3" d="M215.1,63.4h2.4v0.7h-3.3v-6.8h0.9V63.4z"/>
                <path class="logo-st3" d="M219.3,57.3v6.8h-0.9v-6.8H219.3z"/>
                <path class="logo-st3" d="M226.2,64.1h-0.9l-3.6-5.4v5.4h-0.9v-6.8h0.9l3.6,5.4v-5.4h0.9V64.1z"/>
                <path class="logo-st3" d="M228.6,57.3v6.8h-0.9v-6.8H228.6z"/>
                <path class="logo-st3" d="M230.2,58.9c0.3-0.5,0.7-0.9,1.2-1.2c0.5-0.3,1.1-0.5,1.7-0.5c0.7,0,1.4,0.2,1.9,0.5c0.6,0.4,1,0.9,1.2,1.5
                    h-1.1c-0.2-0.4-0.5-0.7-0.8-0.9c-0.4-0.2-0.8-0.3-1.3-0.3c-0.5,0-0.9,0.1-1.3,0.3c-0.4,0.2-0.7,0.5-0.9,0.9
                    c-0.2,0.4-0.3,0.9-0.3,1.4c0,0.5,0.1,1,0.3,1.4c0.2,0.4,0.5,0.7,0.9,0.9c0.4,0.2,0.8,0.3,1.3,0.3c0.5,0,0.9-0.1,1.3-0.3
                    c0.4-0.2,0.6-0.5,0.8-0.9h1.1c-0.3,0.7-0.7,1.2-1.2,1.5c-0.6,0.4-1.2,0.5-1.9,0.5c-0.6,0-1.2-0.1-1.7-0.4
                    c-0.5-0.3-0.9-0.7-1.2-1.2c-0.3-0.5-0.5-1.1-0.5-1.8C229.8,60,229.9,59.4,230.2,58.9z"/>
            </g>
        </g>
    </g>
</svg>
